<?xml version="1.0" encoding="utf-8"?>
<!-- Generator: Adobe Illustrator 26.2.1, SVG Export Plug-In . SVG Version: 6.00 Build 0)  -->
<svg version="1.1" id="Layer_1" xmlns="http://www.w3.org/2000/svg" xmlns:xlink="http://www.w3.org/1999/xlink" x="0px" y="0px"
	 viewBox="0 0 1000 1000" style="enable-background:new 0 0 1000 1000;" xml:space="preserve">
<style type="text/css">
	.st0{fill:#538135;}
</style>
<path class="st0" d="M303.2,533.2H77.9L64,508.8h752.4l50.7-66.5c28.1,25.8,51,49.9,68.9,72.2l-12,18.7H364.9
	c-10.8,39.2-22,74.6-33.5,106.2h383.2l39.2-45.4c38.6,30.9,57.9,50.7,57.9,59.3c0,3.8-3,7.7-9.1,11.5l-24.4,16.7
	c-14.7,131.4-44,210.6-88,237.7c-22.3,13.1-51.8,20.6-88.5,22.5c0-19.5-12.8-34.1-38.3-44c-22.6-8.3-60.4-16.7-113.4-25.4v-26.3
	c65.7,10.5,122.1,15.8,169.3,15.8c32.8,0,55-13.1,66.5-39.2c17.2-38.9,29.7-91.8,37.3-158.8H322.8c-10.8,27.7-23.3,55.2-37.3,82.3
	l-57.9-17.7C256.6,670.4,281.8,605.3,303.2,533.2z M236.7,433.3v42.6h-56v-343c26.8,10.2,49,19.9,66.5,29.2h213.3V58.2
	c62.8,1.9,94.2,10,94.2,24.4c0,8.3-13.1,16.7-39.2,25.4V162h227.7l36.4-42.1c40.2,30,60.3,49.3,60.3,57.9c0,4.5-3,8.6-9.1,12.4
	l-22.5,15.8v263.6h-56v-36.4H236.7z M515.5,280.7h236.8v-94.2H515.5V280.7z M515.5,305.1v103.8h236.8V305.1H515.5z M460.5,408.9
	V305.1H236.7v103.8H460.5z M460.5,280.7v-94.2H236.7v94.2H460.5z"/>
</svg>
