<?xml version="1.0" encoding="utf-8"?>
<!-- Generator: Adobe Illustrator 26.2.1, SVG Export Plug-In . SVG Version: 6.00 Build 0)  -->
<svg version="1.1" id="Layer_1" xmlns="http://www.w3.org/2000/svg" xmlns:xlink="http://www.w3.org/1999/xlink" x="0px" y="0px"
	 viewBox="0 0 1000 1000" style="enable-background:new 0 0 1000 1000;" xml:space="preserve">
<style type="text/css">
	.st0{fill:#538135;}
</style>
<path class="st0" d="M774.6,614.2v327.5h-57V890H284.3v51.7h-57V620c-46.6,31.6-99.9,61.1-159.9,88.6L54.9,688
	C170.8,626.3,270.1,543,352.7,438H74.5l-10.1-24.4h307c28.4-39.3,53-81.4,73.7-126.4l-33.5,2.9c-82.7,4.8-150.4,8-203,9.6
	c-7,23-14.2,34.5-21.5,34.5c-14,0-24.4-28.4-31.1-85.2h106.8l57-1.4C357.1,197,392,133.9,424.6,58.2c54.9,19.5,82.4,36.1,82.4,49.8
	c0,8.3-14.4,12.9-43.1,13.9c-33.2,45-70.6,86.8-112.1,125.5h91.5c51.4-1,105.4-1.9,161.9-2.9l103-2.9c-26.5-26.5-61.8-54-105.8-82.4
	l11.5-18.7c83.6,34.2,146.2,71.8,187.7,113c20.1,20.1,30.2,39.1,30.2,57c0,21.4-9.6,32.1-28.7,32.1c-13.4,0-26.3-11-38.8-33
	c-6.7-12.5-17.2-26.8-31.6-43.1l-18.7,1.9c-80.4,6.4-143.8,11-190.1,13.9l-59.9,3.8c45,14.7,67.5,28.1,67.5,40.2
	c0,7.7-14.7,11.5-44.1,11.5c-15.3,27.8-31.1,53-47.4,75.7h386.9l49.8-64.6c20.1,17.2,40.1,36.9,59.9,58.9l7.7,9.6L932.7,438H608.9
	c84.6,84.6,196.7,144.6,336.2,180.1c-18.8,15-33.2,33.4-43.1,55.1C852.2,654.9,809.7,635.3,774.6,614.2z M717.6,736.8H528.5v128.8
	h189.2V736.8z M717.6,712.4V593.6H528.5v118.8H717.6z M472.5,593.6H284.3v118.8h188.2V593.6z M294.8,569.2h410.9
	c-52.4-39.9-96.7-83.6-133.1-131.2H422.7C383.1,486.8,340.5,530.6,294.8,569.2z M284.3,865.6h188.2V736.8H284.3V865.6z"/>
</svg>
